# xmcd
#
# Track frame offsets:
# 150
# 18851
# 44383
# 63705
# 87725
# 110017
# 126666
# 146285
# 150352
#
# Disc length: 2513 seconds
#
#
# Revision: 0
# Processed by: cddbd v1.5.1PL0 Copyright (c) Steve Scherf et al.
# Submitted via: FreeRIP 2.80 
#
DISCID=7c09cf09
DTITLE=Lightnin' Willie and the Poorboys - Got It Live If You Want It!
DYEAR=2002
DGENRE=Blues
TTITLE0=Take A Little Walk
TTITLE1=Pride And Joy
TTITLE2=Don't Let Go
TTITLE3=Eyes In The Back Of My Head
TTITLE4=Not Fade Away
TTITLE5=Lovelight
TTITLE6=Loved Another Woman
TTITLE7=Without Your Love
TTITLE8=Can't Be Satisfied
EXTD=www.lightninwillie.com\nRecorded Live - Greenville, South Caroline\nProduced by Mike Collins\nEngineers: Steve Pouliat, Rob Zucca\n\nDedicated to the memory of Hurricane Jake
EXTT0=
EXTT1=
EXTT2=
EXTT3=
EXTT4=
EXTT5=
EXTT6=
EXTT7=
EXTT8=
PLAYORDER=
